<?xml version="1.0" encoding="iso-8859-1"?>
<!-- Uploaded to: SVG Repo, www.svgrepo.com, Generator: SVG Repo Mixer Tools -->
<svg fill="#a57100" height="800px" width="800px" version="1.1" id="Layer_1" xmlns="http://www.w3.org/2000/svg" xmlns:xlink="http://www.w3.org/1999/xlink" 
	 viewBox="0 0 512 512" xml:space="preserve">
<g>
	<g>
		<path d="M485.274,226.167c-2.338-4.096-7.552-5.521-11.639-3.174l-56.96,32.546L384,249.003V230.4h-26.035
			c-0.845-10.189-3.191-19.934-6.81-29.065l53.274-22.827c3.14-1.34,5.171-4.429,5.171-7.842V76.8h51.2
			c4.719,0,8.533-3.823,8.533-8.533s-3.814-8.533-8.533-8.533h-59.733c-4.719,0-8.533,3.823-8.533,8.533v96.777l-49.015,21.009
			c-12.16-20.053-30.959-35.584-53.385-43.546v-31.573h29.056c12.211,0,22.144-9.933,22.144-22.135V25.6
			c0-14.114-11.486-25.6-25.6-25.6s-25.6,11.486-25.6,25.6v34.133h-68.267V25.6c0-14.114-11.486-25.6-25.6-25.6
			s-25.6,11.486-25.6,25.6v63.198c0,12.203,9.933,22.135,22.144,22.135h29.056v31.573c-22.426,7.962-41.224,23.492-53.385,43.546
			l-49.015-21.009V68.267c0-4.71-3.814-8.533-8.533-8.533H51.2c-4.719,0-8.533,3.823-8.533,8.533S46.481,76.8,51.2,76.8h51.2v93.867
			c0,3.413,2.031,6.502,5.171,7.842l53.274,22.827c-3.618,9.131-5.965,18.876-6.81,29.065H128v18.603l-32.674,6.536l-56.96-32.546
			c-4.087-2.347-9.31-0.922-11.639,3.174c-2.347,4.087-0.922,9.301,3.174,11.639l59.733,34.133c1.297,0.742,2.756,1.126,4.232,1.126
			c0.555,0,1.118-0.051,1.673-0.171L128,266.411v36.787l-48.137,40.115c-2.944,2.458-3.891,6.588-2.295,10.086l40.858,89.89
			L86.46,499.234c-2.347,4.087-0.922,9.301,3.174,11.639c1.331,0.768,2.79,1.126,4.224,1.126c2.97,0,5.845-1.544,7.415-4.301
			l34.133-59.733c1.357-2.381,1.493-5.265,0.358-7.765l-39.97-87.945L128,325.419v41.515c0,37.777,16.546,71.689,42.667,95.138
			V247.467h17.067v227.558c10.462,6.622,21.922,11.759,34.133,15.147V247.467h17.067v246.195c5.598,0.751,11.264,1.271,17.067,1.271
			s11.469-0.521,17.067-1.271V247.467h17.067v242.705c12.211-3.388,23.671-8.525,34.133-15.147V247.467h17.067v214.605
			C367.454,438.622,384,404.71,384,366.933v-41.515l32.205,26.837l-39.97,87.945c-1.135,2.5-0.998,5.385,0.358,7.765l34.133,59.733
			c1.57,2.756,4.446,4.301,7.415,4.301c1.434,0,2.893-0.358,4.224-1.126c4.096-2.338,5.521-7.552,3.174-11.639l-31.966-55.945
			l40.858-89.89c1.596-3.499,0.649-7.629-2.295-10.086L384,303.198v-36.787l32.461,6.485c0.555,0.12,1.118,0.171,1.673,0.171
			c1.476,0,2.935-0.384,4.232-1.126l59.733-34.133C486.195,235.469,487.62,230.255,485.274,226.167z M171.093,230.4
			c4.292-43.059,40.73-76.8,84.907-76.8s80.614,33.741,84.907,76.8H171.093z"/>
	</g>
</g>
</svg>